# xmcd
#
# Track frame offsets:
#	150
#	15867
#	47548
#	69740
#	105838
#	137960
#	161470
#	184612
#	204657
#	228253
#	252950
#	272411
#
# Disc length: 3891
#
# Revision: 1
# Processed by: cddbd v1.5.1PL0 Copyright (c) Steve Scherf et al.
# Submitted via: CDex 1.51
# Normalized: r0:TDELIM( - )
#
DISCID=930f310c
DTITLE=Köstritzer Jazzband - Standards Vol. 3
DYEAR=2003
DGENRE=Jazz
TTITLE0=Nature Boy - Eden Ahbez
TTITLE1=Route 66 - Bobby Troup
TTITLE2=Mas Que Nada - Jorge Ben
TTITLE3=Velas - Ivan Lins and Vitor Martins
TTITLE4=Love For Sale - Cole Porter
TTITLE5=I've Got You Under My Shin - Cole Porter
TTITLE6=Mercy Mercy Mercy - Josef Zawinul
TTITLE7=Windmills - Michel Legrand
TTITLE8=They Can't Take That From Me - George Gershwin
TTITLE9=Sorry Seems To Be The Hardest Word - Elton John
TTITLE10=Star Eyes - Raye and De Paul
TTITLE11=Tenderly - Walter Gross
EXTD=YEAR: 2003
EXTT0=
EXTT1=
EXTT2=
EXTT3=
EXTT4=
EXTT5=
EXTT6=
EXTT7=
EXTT8=
EXTT9=
EXTT10=
EXTT11=
PLAYORDER=
